<svg xmlns="http://www.w3.org/2000/svg" xmlns:xlink="http://www.w3.org/1999/xlink" fill="none" version="1.1" width="200.579345703125" height="173.3225555419922" viewBox="0 86.6612777709961 200.579345703125 173.3225555419922"><g><g><ellipse cx="100.5" cy="84.8775405883789" rx="87.5" ry="84.8775405883789" fill="#543335" fill-opacity="1"/></g><g transform="matrix(0.6053819060325623,-0.7959351539611816,0.8131954073905945,0.581990659236908,-114.0726713559443,81.60911062041941)"><rect x="23" y="151.43824768066406" width="24.517440795898438" height="37.602508544921875" rx="9" fill="#543335" fill-opacity="1"/></g><g transform="matrix(0.9448716640472412,-0.3274408280849457,0.345597505569458,0.9383828639984131,-35.00260273165077,6.240670427790974)"><rect x="0" y="101.28141021728516" width="24.916330337524414" height="36.99177551269531" rx="9" fill="#543335" fill-opacity="1"/></g><g transform="matrix(-0.6062702536582947,-0.7952587008476257,-0.8138328194618225,0.5810990929603577,408.40015070387835,204.61671621721962)"><rect x="177.5260009765625" y="151.43824768066406" width="24.538299560546875" height="37.66020584106445" rx="9" fill="#543335" fill-opacity="1"/></g><g transform="matrix(-0.9451059103012085,-0.32676413655281067,-0.3463030457496643,0.9381227493286133,425.22213164756477,71.80915191737586)"><rect x="200.579345703125" y="101.28141021728516" width="24.967931747436523" height="37.002037048339844" rx="9" fill="#543335" fill-opacity="1"/></g><g transform="matrix(0.9995151162147522,-0.03192434087395668,0.03814730793237686,0.9992920160293579,-5.088432516086527,2.6491044920021523)"><ellipse cx="88.50054264068604" cy="145.82512760162354" rx="8.500542640686035" ry="11.419228553771973" fill="#FFFFFF" fill-opacity="1"/></g><g transform="matrix(0.999515175819397,0.031924791634082794,-0.03814784064888954,0.9992920160293579,5.156982990282813,-3.221336213679024)"><ellipse cx="112.37322235107422" cy="145.28340339660645" rx="8.500663757324219" ry="11.419389724731445" fill="#FFFFFF" fill-opacity="1"/></g><g><ellipse cx="85.5" cy="150.83951139450073" rx="3.5" ry="4.36513090133667" fill="#543335" fill-opacity="1"/></g><g><ellipse cx="108.300048828125" cy="150.83951139450073" rx="3.5" ry="4.36513090133667" fill="#543335" fill-opacity="1"/></g></g></svg>